<svg xmlns="http://www.w3.org/2000/svg"><symbol id="icon-arr-l" viewBox="0 0 477.175 477.175"><path d="M145.188 238.575l215.5-215.5c5.3-5.3 5.3-13.8 0-19.1s-13.8-5.3-19.1 0l-225.1 225.1c-5.3 5.3-5.3 13.8 0 19.1l225.1 225c2.6 2.6 6.1 4 9.5 4s6.9-1.3 9.5-4c5.3-5.3 5.3-13.8 0-19.1l-215.4-215.5z"/></symbol><symbol id="icon-arr-r" viewBox="0 0 477.175 477.175"><path d="M360.731 229.075l-225.1-225.1c-5.3-5.3-13.8-5.3-19.1 0s-5.3 13.8 0 19.1l215.5 215.5-215.5 215.5c-5.3 5.3-5.3 13.8 0 19.1 2.6 2.6 6.1 4 9.5 4 3.4 0 6.9-1.3 9.5-4l225.1-225.1c5.3-5.2 5.3-13.8.1-19z"/></symbol><symbol id="icon-loupe" viewBox="0 0 511.999 511.999"><path d="M496.131 435.698L374.855 332.551c-12.537-11.283-25.945-16.463-36.777-15.963C366.707 283.055 384 239.549 384 192 384 85.961 298.039 0 192 0 85.962 0 0 85.961 0 192s85.961 192 192 192c47.549 0 91.055-17.293 124.588-45.922-.5 10.831 4.68 24.238 15.963 36.775L435.697 496.13c17.662 19.623 46.512 21.277 64.109 3.678 17.6-17.599 15.948-46.449-3.675-64.11zM192 320c-70.692 0-128-57.309-128-128 0-70.692 57.308-128 128-128 70.691 0 128 57.308 128 128 0 70.691-57.307 128-128 128z"/></symbol><symbol id="icon-play" viewBox="0 0 41.999 41.999"><path d="M36.068 20.176l-29-20A1 1 0 1 0 5.5.999v40a1 1 0 0 0 1.568.823l29-20a.999.999 0 0 0 0-1.646z"/></symbol></svg>